// -25.638859574164236 -25.638859574164236 -25.638859574164236 -25.638859574164236 -24.638859574164236 -23.638859574164236 -22.638859574164236 -21.638859574164236 -20.638859574164236 -19.638859574164236 -18.638859574164236 -17.638859574164236 -16.638859574164236 -15.638859574164236 -14.638859574164236 -13.638859574164236 -12.638859574164236 -11.638859574164236 -10.638859574164236 -9.6388595741642362 -8.6388595741642362 -7.6388595741642362 -6.6388595741642362 -5.6388595741642362 -4.6388595741642362 -3.6388595741642358 -2.6388595741642358 -2.6388595741642358 -2.6388595741642358 -1.3194297870821179 -1.3194297870821179 -1.3194297870821179 0 0 0 0

lc = 0.07;
r  = 0.629874834450646;

Point(1) = { 0, 0, -1,lc};
Point(2) = { 0, r, -1,lc};
Point(3) = {-r, 0, -1,lc};
Point(4) = { 0,-r, -1,lc};
Point(5) = { r, 0, -1,lc};
pawnPts[0] = newp; Point(pawnPts[0]) = {-0, 0.629874834450646, -0, lc};
pawnPts[1] = newp; Point(pawnPts[1]) = {0, 0.629874834450646, 0.0999990270161424, lc};
pawnPts[2] = newp; Point(pawnPts[2]) = {-2.48345415084304e-24, 0.629929676217862, 0.196371037902745, lc};
pawnPts[3] = newp; Point(pawnPts[3]) = {8.69208952795065e-24, 0.624852185790717, 0.201376567058984, lc};
pawnPts[4] = newp; Point(pawnPts[4]) = {-3.22849039609596e-23, 0.611323037915022, 0.209461739602985, lc};
pawnPts[5] = newp; Point(pawnPts[5]) = {1.20447526315888e-22, 0.598539108070821, 0.21361261696716, lc};
pawnPts[6] = newp; Point(pawnPts[6]) = {-4.49505201302591e-22, 0.591522597471424, 0.220284293966199, lc};
pawnPts[7] = newp; Point(pawnPts[7]) = {1.67757327889448e-21, 0.589676013336607, 0.22744840611338, lc};
pawnPts[8] = newp; Point(pawnPts[8]) = {-6.26078791427531e-21, 0.592422943174483, 0.2348436481633, lc};
pawnPts[9] = newp; Point(pawnPts[9]) = {2.33655783782068e-20, 0.59754756036107, 0.239574213269233, lc};
pawnPts[10] = newp; Point(pawnPts[10]) = {-8.72015255985518e-20, 0.605401422529752, 0.249035985617794, lc};
pawnPts[11] = newp; Point(pawnPts[11]) = {3.25440524016e-19, 0.618266686337998, 0.278017131905822, lc};
pawnPts[12] = newp; Point(pawnPts[12]) = {-6.44614786830874e-18, 0.630123729454423, 0.316733061008547, lc};
pawnPts[13] = newp; Point(pawnPts[13]) = {-3.01493385351556e-17, 0.63353450954244, 0.351640513115212, lc};
pawnPts[14] = newp; Point(pawnPts[14]) = {-4.19526390385331e-17, 0.627102192447196, 0.38519568066054, lc};
pawnPts[15] = newp; Point(pawnPts[15]) = {-2.14181167381285e-17, 0.608166745212675, 0.419766115059547, lc};
pawnPts[16] = newp; Point(pawnPts[16]) = {-2.29224730351289e-18, 0.553859715431144, 0.464243432879362, lc};
pawnPts[17] = newp; Point(pawnPts[17]) = {2.71893845855445e-19, 0.465821711098109, 0.517991160906678, lc};
pawnPts[18] = newp; Point(pawnPts[18]) = {8.90925426423696e-20, 0.407637229030552, 0.555070203345249, lc};
pawnPts[19] = newp; Point(pawnPts[19]) = {-1.19690957249525e-18, 0.391221329820915, 0.572514540937572, lc};
pawnPts[20] = newp; Point(pawnPts[20]) = {-1.05567628131723e-17, 0.384940397245803, 0.587051629445935, lc};
pawnPts[21] = newp; Point(pawnPts[21]) = {-2.30746166757309e-17, 0.382063780613366, 0.605293211262417, lc};
pawnPts[22] = newp; Point(pawnPts[22]) = {-2.7809476275271e-17, 0.38144304200886, 0.634158738177675, lc};
pawnPts[23] = newp; Point(pawnPts[23]) = {-2.77442173616517e-17, 0.379023649738211, 0.662124026666152, lc};
pawnPts[24] = newp; Point(pawnPts[24]) = {-2.77471079718958e-17, 0.37097372091922, 0.674279236532107, lc};
pawnPts[25] = newp; Point(pawnPts[25]) = {-2.78008044445386e-17, 0.353099571634233, 0.679794172064826, lc};
pawnPts[26] = newp; Point(pawnPts[26]) = {-2.75613853472327e-17, 0.323651586915721, 0.686849435470021, lc};
pawnPts[27] = newp; Point(pawnPts[27]) = {-2.12896084415887e-17, 0.301345474162257, 0.695160941281628, lc};
pawnPts[28] = newp; Point(pawnPts[28]) = {-8.35041029049169e-18, 0.291386898349558, 0.712970425218753, lc};
pawnPts[29] = newp; Point(pawnPts[29]) = {-6.74080225231753e-19, 0.267837039533862, 0.776525874088171, lc};
pawnPts[30] = newp; Point(pawnPts[30]) = {7.21407269758674e-19, 0.231498181326372, 0.882782459227501, lc};
pawnPts[31] = newp; Point(pawnPts[31]) = {5.26981366354555e-18, 0.208119580433126, 0.992457092593423, lc};
pawnPts[32] = newp; Point(pawnPts[32]) = {1.14842200730674e-17, 0.199149805702294, 1.08095449844053, lc};
pawnPts[33] = newp; Point(pawnPts[33]) = {1.41539452167704e-17, 0.194704032406017, 1.1193025857275, lc};
pawnPts[34] = newp; Point(pawnPts[34]) = {8.98157932854426e-18, 0.216279143065149, 1.12893674937002, lc};
pawnPts[35] = newp; Point(pawnPts[35]) = {-8.66616552737489e-18, 0.290674685865706, 1.14011321700906, lc};
pawnPts[36] = newp; Point(pawnPts[36]) = {-2.47956807194497e-17, 0.359605022654232, 1.14936020979478, lc};
pawnPts[37] = newp; Point(pawnPts[37]) = {-2.7529794081464e-17, 0.378708824974389, 1.1557110794891, lc};
pawnPts[38] = newp; Point(pawnPts[38]) = {-7.99620870049452e-18, 0.385997327230532, 1.17415997778415, lc};
pawnPts[39] = newp; Point(pawnPts[39]) = {2.92159096713859e-17, 0.39679478062123, 1.20787939052867, lc};
pawnPts[40] = newp; Point(pawnPts[40]) = {3.67751696782324e-17, 0.408365921351963, 1.23292257527319, lc};
pawnPts[41] = newp; Point(pawnPts[41]) = {1.34466471179353e-17, 0.399014185787687, 1.24671467323294, lc};
pawnPts[42] = newp; Point(pawnPts[42]) = {-8.75519251144625e-19, 0.437411352184409, 1.25924490935879, lc};
pawnPts[43] = newp; Point(pawnPts[43]) = {4.21437379973114e-18, 0.215624915560713, 1.30024212998211, lc};
pawnPts[44] = newp; Point(pawnPts[44]) = {-1.59432646375728e-17, 0.381424937927533, 1.45466829214795, lc};
pawnPts[45] = newp; Point(pawnPts[45]) = {2.14643662429795e-17, 0.437048595253536, 1.68712533518437, lc};
pawnPts[46] = newp; Point(pawnPts[46]) = {-1.89666572305521e-17, 0.381249586828495, 1.88929872106558, lc};
pawnPts[47] = newp; Point(pawnPts[47]) = {-1.62735235996719e-18, 0.216998562390372, 2.05897685618638, lc};
pawnPts[48] = newp; Point(pawnPts[48]) = {5.73765993120131e-18, 0.0680099910862148, 2.0944, lc};
pawnPts[49] = newp; Point(pawnPts[49]) = {0, 0, 2.0944, lc};


BSpline(1) = {pawnPts[]};
// BSpline(2) = {pawnPts[]};
// BSpline(3) = {pawnPts[]};
// BSpline(4) = {pawnPts[]};

Rotate { {0,0,1} , {0,0,0} , Pi/2 } { Duplicata{ Line{1};  } }
Rotate { {0,0,1} , {0,0,0} , Pi/2 } { Duplicata{ Line{2};  } }
Rotate { {0,0,1} , {0,0,0} , Pi/2 } { Duplicata{ Line{3};  } }

edge1[] = Extrude { {0,0,1} , {0,0,0} , Pi/2 } {  Line{1};  };
edge2[] = Extrude { {0,0,1} , {0,0,0} , Pi/2 } {  Line{2};  };
edge3[] = Extrude { {0,0,1} , {0,0,0} , Pi/2 } {  Line{3};  };
edge4[] = Extrude { {0,0,1} , {0,0,0} , Pi/2 } {  Line{4};  };

Printf(" Kjetils top edge #1: %f",  edge1[0]);
Printf(" Kjetils top edge #2: %f",  edge2[0]);
Printf(" Kjetils top edge #3: %f",  edge3[0]);
Printf(" Kjetils top edge #4: %f",  edge4[0]);

Printf(" Kjetils extruded surface #1: %f",  edge1[1]);
Printf(" Kjetils extruded surface #2: %f",  edge2[1]);
Printf(" Kjetils extruded surface #3: %f",  edge3[1]);
Printf(" Kjetils extruded surface #4: %f",  edge4[1]);

Printf(" Kjetils side edge #1: %f",  edge1[2]);
Printf(" Kjetils side edge #2: %f",  edge2[2]);
Printf(" Kjetils side edge #3: %f",  edge3[2]);
Printf(" Kjetils side edge #4: %f",  edge4[2]);

// circLoop[0] = newl;  Circle(circLoop[0]) = {2,1,3};
// circLoop[1] = newl;  Circle(circLoop[1]) = {3,1,4};
// circLoop[2] = newl;  Circle(circLoop[2]) = {4,1,5};
// circLoop[3] = newl;  Circle(circLoop[3]) = {5,1,2};

// Line Loop(10) = {circLoop[]};
// Line Loop(10) = {edge1[2], edge2[2], edge3[2], edge4[2]};
Line Loop(10) = {6,9,12,15};
Plane Surface(11) = {10};

Surface Loop(100) = {edge1[1], edge2[1], edge3[1], edge4[1], 11};

Volume(101) = {100};

